# xmcd
#
# Track frame offsets:
# 150
# 14041
# 28140
# 41698
# 54712
# 68850
# 88509
# 104252
# 117207
# 132934
# 145650
# 161312
# 176175
# 193863
# 209096
# 222018
# 236076
# 250465
# 269273
# 280809
# 297431
# 311097
#
# Disc length: 4329 seconds
#
#
# Revision: 0
# Processed by: cddbd v1.5.1PL2 Copyright (c) Steve Scherf et al.
# Submitted via: FreeRIP 2.52 
#
DISCID=5c10e716
DTITLE=Varios - Bailão no Tietê
DYEAR=1900
DGENRE=Sertanejo
TTITLE0=Saudades da minha terra - Chitão and Xororo e Daniel
TTITLE1=Mulher Chorona - Teodoro and Sampaio
TTITLE2=Moreninha Linda - Tonico and Tinoco  E Daniel
TTITLE3=Na Sola da Bota - Rio Negro and Solimoes
TTITLE4=Cara de Boi - Gino and Geno
TTITLE5=A Jiripoca Vai Piar - Daniel
TTITLE6=Que Pescar que nada - Bruno and Marrone
TTITLE7=A Garagem da Vizinha - Ataide and Alexandre
TTITLE8=Ela mexe Comigo - Teodoro and Sampaio
TTITLE9=Bate o Pé - Rio Negro and Solimoes
TTITLE10=O Bicho vai pegar - Edson and Hudson
TTITLE11=Água de coco - Leonardo
TTITLE12=Nos trópica mais não cai - Rick and Renner
TTITLE13=Agita ai - Gino and Geno
TTITLE14=Clube do Batidão - Rio Negro and Solimoes e Luciano
TTITLE15=Zoião - Edson and Hudson
TTITLE16=Apaziguar - Bruno and Marrone
TTITLE17=Guenta Nóis - Zezé and Luciano e Convidados
TTITLE18=Whisky com Guaraná - Teodoro and Sampaio
TTITLE19=Porque Choras - Bruno and Marrone e Calipso
TTITLE20=Vai Sobrar Mulher - Guilherme e Santiago
TTITLE21=Pega Fogo o Bailão - Os Fandangos
EXTD=
EXTT0=
EXTT1=
EXTT2=
EXTT3=
EXTT4=
EXTT5=
EXTT6=
EXTT7=
EXTT8=
EXTT9=
EXTT10=
EXTT11=
EXTT12=
EXTT13=
EXTT14=
EXTT15=
EXTT16=
EXTT17=
EXTT18=
EXTT19=
EXTT20=
EXTT21=
PLAYORDER=
